<svg width="87" height="28" viewBox="0 0 87 28" fill="none" xmlns="http://www.w3.org/2000/svg">
<path d="M45.0703 14.0312C45.0703 15.224 44.6797 16.138 43.8984 16.7734C43.1172 17.4089 42.0052 17.7266 40.5625 17.7266H39.375V22H37.5078V10.5781H40.7969C42.224 10.5781 43.2917 10.8698 44 11.4531C44.7135 12.0365 45.0703 12.8958 45.0703 14.0312ZM39.375 16.1562H40.3672C41.3255 16.1562 42.0286 15.9896 42.4766 15.6562C42.9245 15.3229 43.1484 14.8021 43.1484 14.0938C43.1484 13.4375 42.9479 12.9479 42.5469 12.625C42.1458 12.3021 41.5208 12.1406 40.6719 12.1406H39.375V16.1562ZM48.9922 22H47.1562V9.84375H48.9922V22ZM57.0312 22L56.6641 20.7969H56.6016C56.1849 21.3229 55.7656 21.6823 55.3438 21.875C54.9219 22.0625 54.3802 22.1562 53.7188 22.1562C52.8698 22.1562 52.2057 21.9271 51.7266 21.4688C51.2526 21.0104 51.0156 20.362 51.0156 19.5234C51.0156 18.6328 51.3464 17.9609 52.0078 17.5078C52.6693 17.0547 53.6771 16.8073 55.0312 16.7656L56.5234 16.7188V16.2578C56.5234 15.7057 56.3932 15.2943 56.1328 15.0234C55.8776 14.7474 55.4792 14.6094 54.9375 14.6094C54.4948 14.6094 54.0703 14.6745 53.6641 14.8047C53.2578 14.9349 52.8672 15.0885 52.4922 15.2656L51.8984 13.9531C52.3672 13.7083 52.8802 13.5234 53.4375 13.3984C53.9948 13.2682 54.5208 13.2031 55.0156 13.2031C56.1146 13.2031 56.9427 13.4427 57.5 13.9219C58.0625 14.401 58.3438 15.1536 58.3438 16.1797V22H57.0312ZM54.2969 20.75C54.9635 20.75 55.4974 20.5651 55.8984 20.1953C56.3047 19.8203 56.5078 19.2969 56.5078 18.625V17.875L55.3984 17.9219C54.5339 17.9531 53.9036 18.099 53.5078 18.3594C53.1172 18.6146 52.9219 19.0078 52.9219 19.5391C52.9219 19.9245 53.0365 20.224 53.2656 20.4375C53.4948 20.6458 53.8385 20.75 54.2969 20.75ZM68.5078 22H66.6641V16.6875C66.6641 16.0208 66.5286 15.5234 66.2578 15.1953C65.9922 14.8672 65.5677 14.7031 64.9844 14.7031C64.2083 14.7031 63.6406 14.9323 63.2812 15.3906C62.9219 15.849 62.7422 16.6172 62.7422 17.6953V22H60.9062V13.3594H62.3438L62.6016 14.4922H62.6953C62.9557 14.0807 63.3255 13.763 63.8047 13.5391C64.2839 13.3151 64.8151 13.2031 65.3984 13.2031C67.4714 13.2031 68.5078 14.2578 68.5078 16.3672V22ZM74.5469 22.1562C73.2396 22.1562 72.2448 21.776 71.5625 21.0156C70.8854 20.25 70.5469 19.1536 70.5469 17.7266C70.5469 16.2734 70.901 15.1562 71.6094 14.375C72.3229 13.5938 73.3516 13.2031 74.6953 13.2031C75.6068 13.2031 76.4271 13.3724 77.1562 13.7109L76.6016 15.1875C75.8255 14.8854 75.1849 14.7344 74.6797 14.7344C73.1849 14.7344 72.4375 15.7266 72.4375 17.7109C72.4375 18.6797 72.6224 19.4089 72.9922 19.8984C73.3672 20.3828 73.9141 20.625 74.6328 20.625C75.4505 20.625 76.224 20.4219 76.9531 20.0156V21.6172C76.625 21.8099 76.2734 21.9479 75.8984 22.0312C75.5286 22.1146 75.0781 22.1562 74.5469 22.1562ZM77.6719 13.3594H79.6719L81.4297 18.2578C81.6953 18.9557 81.8724 19.612 81.9609 20.2266H82.0234C82.0703 19.9401 82.1562 19.5938 82.2812 19.1875C82.4062 18.776 83.0677 16.8333 84.2656 13.3594H86.25L82.5547 23.1484C81.8828 24.9453 80.763 25.8438 79.1953 25.8438C78.7891 25.8438 78.3932 25.7995 78.0078 25.7109V24.2578C78.2839 24.3203 78.599 24.3516 78.9531 24.3516C79.8385 24.3516 80.4609 23.8385 80.8203 22.8125L81.1406 22L77.6719 13.3594Z" fill="white"/>
<path d="M0 6.15601L13 12.1135V28L0 22.0425V6.15601Z" fill="#926CFF"/>
<path d="M1.18397 6.1486L13 0.553227L24.816 6.1486L13 11.5635L1.18397 6.1486Z" stroke="#926CFF"/>
<path d="M26 6.15601L13 12.1135V28L26 22.0425V6.15601Z" fill="#926CFF"/>
</svg>
